# xmcd
#
# Track frame offsets:
#	150
#	14670
#	34688
#	58222
#	79327
#	94742
#	115324
#	132851
#	149242
#	165547
#
# Disc length: 2394 seconds
#
# Revision: 1
# Processed by: cddbd v1.5.2PL0 Copyright (c) Steve Scherf et al.
# Submitted via: audiograbber 1.83.01
#
DISCID=9009580a
DTITLE=Tim Carter - Wishes
DYEAR=2018
DGENRE=Country
TTITLE0=Split Lip
TTITLE1=Shivering
TTITLE2=These Wishes Are Horses
TTITLE3=Fatback
TTITLE4=Fungus Amungus
TTITLE5=Man Gave Names To All The Animals
TTITLE6=Whoa Whoa
TTITLE7=I Hear Trains In The Night
TTITLE8=Lulu
TTITLE9=A Waltz For Earl
EXTD=
EXTT0=
EXTT1=
EXTT2=
EXTT3=
EXTT4=
EXTT5=
EXTT6=
EXTT7=
EXTT8=
EXTT9=
PLAYORDER=
